<svg xmlns="http://www.w3.org/2000/svg" viewBox="0 0 153.82 179.19"><g id="Layer_2" data-name="Layer 2"><g id="Layer_1-2" data-name="Layer 1"><polygon points="109.3 27.67 124.08 27.67 124.08 13.77 109.3 13.86 109.3 27.67"/><path d="M138.2,26.87l14.39-.34a92.15,92.15,0,0,1-.75,12.37c-4.6.84-13.64.7-13.64.7Z"/><path d="M109,110c8.36-.16,17.42-.77,17.42-.77s-4.75,13.19-6.36,13.9c-.67.3-11,1-11,1Z"/><path d="M138,1.86v12s10,0,15.78-.66l.08-12.5C151,1.1,138,1.86,138,1.86Z"/><path d="M138.2,53.64V39.49L124,40.37V54.11S135.92,54.37,138.2,53.64Z"/><path d="M124.09,67.17c-.47,0-.11-13.06-.11-13.06s-19.54.78-28.94.78c-.35,0,0-12.69,0-12.69l14-.12V27.84H94.8V4.7l1.53-.09C90.29,4.85,84.4,5,79,5,51,5,26,3,0,0,0,0,0,56,26,104c19.23,35.58,43.09,67.45,52,74.29v.9l.64-.44L79,179v-.52c2.54-1.95,6.31-5.95,10.83-11.48H80V154H95V139.13s12.18-.69,14-1.13V124l-14.44.72V110.85l-14.88.05V97.83l14.59,0,.29,13.07s7.91-.17,14.43-.83V96s13.72-.57,14.8-.89L124,80.86s9.31-.11,14.15-1.14V66.78S127.51,67.17,124.09,67.17Zm-30,2.57H79.94v14h-15v-14h15V55.94H94.08Zm.38-27.86H80v-14H94.46Zm14.38,40.93s-7,.43-13.88.28V69.84s7.9,0,13.88-.41Z"/></g></g></svg>